<svg width="23" height="23" viewBox="0 0 23 23" fill="none" xmlns="http://www.w3.org/2000/svg">
<path d="M15.1417 2.11792C14.7487 1.725 14.0683 1.99334 14.0683 2.53959V5.88417C14.0683 7.28334 15.2567 8.44292 16.7037 8.44292C17.6142 8.4525 18.8792 8.4525 19.9621 8.4525C20.5083 8.4525 20.7958 7.81042 20.4125 7.42709C19.0325 6.0375 16.56 3.53625 15.1417 2.11792Z" fill="#303030"/>
<path d="M19.6458 9.76541H16.8762C14.605 9.76541 12.7554 7.91582 12.7554 5.64457V2.87499C12.7554 2.34791 12.3242 1.91666 11.7971 1.91666H7.73374C4.78208 1.91666 2.39583 3.83332 2.39583 7.25457V15.7454C2.39583 19.1667 4.78208 21.0833 7.73374 21.0833H15.2662C18.2179 21.0833 20.6042 19.1667 20.6042 15.7454V10.7237C20.6042 10.1967 20.1729 9.76541 19.6458 9.76541ZM11.0208 17.0104H7.1875C6.79458 17.0104 6.46875 16.6846 6.46875 16.2917C6.46875 15.8987 6.79458 15.5729 7.1875 15.5729H11.0208C11.4137 15.5729 11.7396 15.8987 11.7396 16.2917C11.7396 16.6846 11.4137 17.0104 11.0208 17.0104ZM12.9375 13.1771H7.1875C6.79458 13.1771 6.46875 12.8512 6.46875 12.4583C6.46875 12.0654 6.79458 11.7396 7.1875 11.7396H12.9375C13.3304 11.7396 13.6562 12.0654 13.6562 12.4583C13.6562 12.8512 13.3304 13.1771 12.9375 13.1771Z" fill="#303030"/>
</svg>
